<svg xmlns="http://www.w3.org/2000/svg" xmlns:xlink="http://www.w3.org/1999/xlink" viewBox="0 0 311 390" version="1.1" x="0px" y="0px"><title>magnif glass</title><desc>Created with Sketch.</desc><g stroke="none" stroke-width="1" fill="none" fill-rule="evenodd"><g transform="translate(-0.491704, 0.000000)" fill="#000000"><path d="M159.243944,183.80438 L38.8429122,304.568161 C30.1640497,313.273172 16.0716362,313.294369 7.36662568,304.615506 C7.34713392,304.596073 7.32767822,304.576604 7.30825869,304.557098 C-1.40617213,295.804138 -1.40120742,281.652079 7.31936254,272.905236 L127.794709,152.066916 C118.36495,136.851791 112.918454,118.891355 112.918454,99.6541793 C112.918454,44.7731576 157.246531,0.283299136 211.927986,0.283299136 C266.60944,0.283299136 310.937517,44.7731576 310.937517,99.6541793 C310.937517,154.535201 266.60944,199.025059 211.927986,199.025059 C192.565738,199.025059 174.501607,193.446881 159.243944,183.80438 Z M211.927986,181.725789 C257.090059,181.725789 293.701153,144.981078 293.701153,99.6541793 C293.701153,54.3272806 257.090059,17.5825692 211.927986,17.5825692 C166.765912,17.5825692 130.154818,54.3272806 130.154818,99.6541793 C130.154818,144.981078 166.765912,181.725789 211.927986,181.725789 Z" fill-rule="nonzero"/><path d="M175.771197,73.154854 C176.161415,54.0528959 189.74102,40.6970552 213.700437,40.6970552 C236.020937,40.6970552 250.771197,53.0434428 250.771197,70.7476967 C250.771197,82.4728824 245.074006,90.6261572 234.069844,97.0711268 C223.690031,103.050195 220.802414,106.855057 220.802414,114.46478 L220.802414,118.580242 L200.120833,118.580242 L199.964745,114.076529 C198.950177,101.885441 203.242581,94.8969202 214.012612,88.607251 C224.08025,82.6281828 227.123954,78.8233213 227.123954,71.4465488 C227.123954,64.0697764 221.192633,58.7119101 212.295651,58.7119101 C203.320625,58.7119101 197.389303,64.3803773 196.921041,73.154854 L175.771197,73.154854 Z M210.734776,155.697055 C203.710843,155.697055 198.013653,150.339189 198.013653,143.505968 C198.013653,136.672747 203.710843,131.314881 210.734776,131.314881 C217.836754,131.314881 223.533944,136.672747 223.533944,143.505968 C223.533944,150.339189 217.836754,155.697055 210.734776,155.697055 Z"/></g></g><text x="0" y="327" fill="#000000" font-size="5px" font-weight="bold" font-family="'Helvetica Neue', Helvetica, Arial-Unicode, Arial, Sans-serif">Created by haykam</text><text x="0" y="332" fill="#000000" font-size="5px" font-weight="bold" font-family="'Helvetica Neue', Helvetica, Arial-Unicode, Arial, Sans-serif">from the Noun Project</text></svg>